<svg fill="#000000" xmlns="http://www.w3.org/2000/svg"  viewBox="0 0 48 48" width="48px" height="48px"><path d="M 23.966797 2.0097656 C 19.782899 2.0097656 15.838278 2.7707839 12.613281 4.8242188 C 9.4646848 6.8290078 7.1238003 10.112198 6.0429688 14.675781 C 5.6915644 14.971786 5.2856489 15.212969 4.6601562 16.265625 C 3.7950584 17.721518 2.9882814 19.979649 2.9882812 23.177734 C 2.9882812 25.446031 3.3532887 27.630346 4.0097656 29.683594 C 3.4010478 30.451132 3.0234375 31.411246 3.0234375 32.466797 C 3.0234375 34.951797 5.0384375 36.966797 7.5234375 36.966797 L 7.5234375 36.867188 C 10.585308 42.869133 16.813729 46.998047 24 46.998047 C 31.167037 46.998047 37.382481 42.891837 40.453125 36.916016 L 40.453125 37 C 42.938125 37 44.953125 34.985 44.953125 32.5 C 44.953125 31.422309 44.559667 30.446756 43.927734 29.671875 C 44.581848 27.622858 44.945312 25.443471 44.945312 23.179688 C 44.945312 11.512944 35.543351 2.0097656 23.966797 2.0097656 z M 23.966797 5.0097656 C 33.906243 5.0097656 41.945313 13.118431 41.945312 23.179688 C 41.945312 23.448282 41.929332 23.712918 41.917969 23.978516 C 39.892475 15.960183 32.637961 9.9980469 24 9.9980469 C 15.282644 9.9980469 7.9717676 16.069206 6.0253906 24.199219 C 6.006834 23.860365 5.9882812 23.521489 5.9882812 23.177734 C 5.9882814 20.47482 6.6423793 18.799732 7.2382812 17.796875 C 7.8341833 16.794018 8.2480469 16.554687 8.2480469 16.554688 L 8.7460938 16.21875 L 8.875 15.632812 C 9.7799665 11.520976 11.657856 8.989784 14.224609 7.3554688 C 16.791363 5.7211535 20.151695 5.0097656 23.966797 5.0097656 z M 24 12.998047 C 32.578371 12.998047 39.5 19.919676 39.5 28.498047 C 39.5 37.076417 32.578371 43.998047 24 43.998047 C 15.421629 43.998047 8.5 37.076417 8.5 28.498047 C 8.5 19.919676 15.421629 12.998047 24 12.998047 z M 16.992188 20.986328 C 13.129278 20.986328 9.9726562 24.131099 9.9726562 27.988281 C 9.9726562 31.845262 13.12844 34.990234 16.992188 34.990234 C 20.833693 34.990234 23.961999 31.87733 23.998047 28.050781 C 24.022597 31.893797 27.150342 35.027344 30.992188 35.027344 C 34.849168 35.027344 37.994141 31.87156 37.994141 28.007812 C 37.994141 24.143866 34.848332 20.986328 30.992188 20.986328 C 27.157232 20.986328 24.037589 24.111745 24.001953 27.945312 C 23.977053 24.109296 20.840606 20.986328 16.992188 20.986328 z M 16.992188 22.986328 C 19.77844 22.986328 22.011719 25.215262 22.011719 27.988281 C 22.011719 30.7613 19.778441 32.990234 16.992188 32.990234 C 14.205934 32.990234 11.972656 30.7613 11.972656 27.988281 C 11.972656 25.215463 14.207095 22.986328 16.992188 22.986328 z M 30.992188 22.986328 C 33.764043 22.986328 35.994141 25.22176 35.994141 28.007812 C 35.994141 30.794066 33.765206 33.027344 30.992188 33.027344 C 28.219168 33.027344 25.990234 30.794066 25.990234 28.007812 C 25.990234 25.22156 28.219168 22.986328 30.992188 22.986328 z M 16 28 C 15.448 28 15 28.448 15 29 C 15 29.552 15.448 30 16 30 C 16.552 30 17 29.552 17 29 C 17 28.448 16.552 28 16 28 z M 32 28 C 31.448 28 31 28.448 31 29 C 31 29.552 31.448 30 32 30 C 32.552 30 33 29.552 33 29 C 33 28.448 32.552 28 32 28 z M 22.996094 33.394531 A 1.0001 1.0001 0 0 0 22.34375 35.166016 L 22.867188 35.609375 L 22.914062 35.640625 C 23.601734 36.098423 24.507641 36.096498 25.193359 35.634766 L 25.236328 35.603516 L 25.755859 35.167969 A 1.0001 1.0001 0 1 0 24.466797 33.638672 L 24.068359 33.974609 C 24.056589 33.980409 24.044913 33.981663 24.033203 33.976562 L 23.634766 33.638672 A 1.0001 1.0001 0 0 0 22.996094 33.394531 z M 24 38 C 22.013 38 20.376453 39.292781 20.064453 40.425781 C 20.025453 40.543781 20 40.669781 20 40.800781 C 20 41.463781 20.536219 42 21.199219 42 C 21.999219 42 22.4 41 24 41 C 25.6 41 26.000781 42 26.800781 42 C 27.463781 42 28 41.463781 28 40.800781 C 28 40.669781 27.974547 40.543781 27.935547 40.425781 C 27.623547 39.292781 25.987 38 24 38 z"/></svg>